<svg width="274" height="35" viewBox="0 0 274 35" fill="none" xmlns="http://www.w3.org/2000/svg">
<path d="M270.638 10.9584C270.638 10.1076 271.292 9.41014 272.093 9.41014C272.48 9.41014 272.84 9.57752 273.12 9.85648C273.401 10.1494 273.548 10.54 273.548 10.9445C273.548 11.349 273.401 11.7395 273.12 12.0324C272.84 12.3253 272.48 12.4927 272.093 12.4927C271.292 12.4927 270.638 11.8092 270.638 10.9584ZM270.518 10.9584C270.518 11.879 271.225 12.6322 272.106 12.6322C272.533 12.6322 272.92 12.4648 273.214 12.144C273.507 11.8232 273.681 11.4047 273.681 10.9584C273.681 10.5121 273.521 10.0936 273.214 9.77279C272.907 9.45198 272.52 9.2846 272.106 9.2846C271.225 9.2846 270.518 10.0378 270.518 10.9584ZM271.506 11.9487H271.732V11.1676H272.24C272.32 11.1676 272.386 11.1676 272.44 11.1955C272.507 11.2374 272.547 11.3211 272.56 11.4326L272.587 11.7395V11.879C272.6 11.9069 272.6 11.9208 272.613 11.9348H272.894V11.8929C272.854 11.879 272.84 11.8371 272.827 11.7814C272.814 11.7535 272.814 11.6977 272.814 11.6279L272.8 11.3908C272.8 11.2792 272.773 11.2095 272.747 11.1676C272.707 11.1258 272.653 11.0839 272.587 11.056C272.667 11.0142 272.72 10.9584 272.76 10.8887C272.8 10.8189 272.814 10.7352 272.814 10.6236C272.814 10.4144 272.733 10.2749 272.587 10.1912C272.507 10.1494 272.4 10.1355 272.28 10.1355H271.519L271.506 11.9487ZM271.719 10.9584V10.3307H272.253C272.333 10.3307 272.4 10.3447 272.44 10.3726C272.52 10.4144 272.56 10.5121 272.56 10.6376C272.56 10.7631 272.533 10.8468 272.467 10.8887C272.413 10.9305 272.333 10.9584 272.226 10.9584H271.719ZM208.486 13.2599L202 23.9164H206.431L212.677 13.7341L208.486 13.2599ZM235.191 13.0228V9.07538H222.579C220.858 9.18696 220.11 10.0518 219.55 10.6655C218.949 11.3211 218.616 12.7019 218.616 12.7019V9.10328H211.903C211.396 9.10328 210.915 9.32645 210.555 9.85648C210.181 10.3726 208.646 13.0228 208.646 13.0228H235.191ZM269.49 13.0228V9.07538H255.998C254.289 9.18696 253.529 10.0518 252.968 10.6655C252.368 11.3211 252.034 12.7019 252.034 12.7019V13.0228H269.49ZM239.622 9.08933H235.845V13.0228H239.622V9.08933ZM251.994 9.08933H248.23V13.0228H251.994V9.08933ZM251.994 14.4455L248.284 14.2084V18.7695C248.284 18.7695 248.27 20.0806 247.056 20.0806H240.703C240.703 20.0806 239.622 19.983 239.622 18.7834V13.5946L235.885 13.3157V20.3038C236.486 23.6514 239.382 23.9164 239.382 23.9164C239.382 23.9164 239.676 23.9303 239.729 23.9443H248.337C248.337 23.9443 252.021 23.6374 252.021 19.9272L251.994 14.4455ZM214.772 23.9164H232.415C235.485 23.2748 235.805 20.3456 235.805 20.3456C235.952 19.4808 235.872 18.7695 235.872 18.7695C235.779 18.1836 234.711 15.5892 232.415 15.3661C231.041 15.2266 218.803 14.2084 218.803 14.2084C219.043 15.4916 219.59 16.1472 219.964 16.5098C220.818 17.3607 222.166 17.6117 222.166 17.6117L231.601 18.4347C231.895 18.4486 232.442 18.5323 232.429 19.2855C232.429 19.3832 232.349 20.0388 231.655 20.0388H218.456V14.1805L214.785 13.9015C214.772 13.9015 214.772 23.9164 214.772 23.9164ZM252.021 23.9443H265.527C268.917 23.7351 269.397 20.3735 269.397 20.3735C269.517 19.4948 269.424 18.7695 269.424 18.7695C269.33 17.9744 268.249 15.5753 265.94 15.3382C264.579 15.1987 252.261 14.4455 252.261 14.4455C252.621 15.7706 253.115 16.1751 253.489 16.5377C254.343 17.4025 255.611 17.5978 255.611 17.5978C255.931 17.6257 265.14 18.4347 265.14 18.4347C265.433 18.4486 266.034 18.4765 266.034 19.2298C266.034 19.4529 265.927 19.69 265.794 19.8156C265.794 19.8156 265.473 19.9969 265.166 19.9969H252.061L252.021 23.9443Z" fill="#00539B"/>
<path fill-rule="evenodd" clip-rule="evenodd" d="M161.712 29.1101C157.243 32.5697 150.765 34.4155 145.188 34.4155C137.367 34.4155 130.327 31.3778 125.001 26.3256C124.582 25.9282 124.957 25.3868 125.459 25.6962C131.207 29.2086 138.315 31.3216 145.656 31.3216C150.608 31.3216 156.054 30.2457 161.063 28.0132C161.819 27.6756 162.452 28.5335 161.712 29.1101Z" fill="#FF9900"/>
<path fill-rule="evenodd" clip-rule="evenodd" d="M163.57 26.8776C163.001 26.1111 159.794 26.5154 158.354 26.6947C157.916 26.751 157.849 26.3501 158.244 26.0619C160.798 24.1739 164.99 24.7188 165.478 25.3517C165.967 25.988 165.351 30.4004 162.951 32.5064C162.582 32.8298 162.231 32.6576 162.395 32.2286C162.934 30.8153 164.143 27.6475 163.57 26.8776Z" fill="#FF9900"/>
<path fill-rule="evenodd" clip-rule="evenodd" d="M158.455 12.7333V10.8981C158.455 10.6203 158.656 10.434 158.897 10.434H166.72C166.971 10.434 167.172 10.6238 167.172 10.8981V12.4696C167.169 12.7333 166.958 13.0779 166.583 13.6228L162.529 19.7017C164.035 19.6631 165.626 19.8986 166.991 20.7073C167.299 20.8901 167.383 21.1573 167.407 21.421V23.3793C167.407 23.6465 167.125 23.9594 166.831 23.7977C164.424 22.4722 161.227 22.3281 158.565 23.8117C158.294 23.9665 158.009 23.657 158.009 23.3899V21.53C158.009 21.2311 158.013 20.7213 158.297 20.2678L162.994 13.194H158.907C158.656 13.194 158.455 13.0076 158.455 12.7333ZM129.915 24.1844H127.535C127.307 24.1669 127.127 23.9876 127.11 23.759V10.9298C127.11 10.6731 127.314 10.4691 127.568 10.4691H129.788C130.019 10.4796 130.203 10.666 130.22 10.898V12.5752H130.263C130.842 10.9544 131.931 10.1986 133.397 10.1986C134.887 10.1986 135.817 10.9544 136.487 12.5752C137.063 10.9544 138.372 10.1986 139.774 10.1986C140.772 10.1986 141.863 10.631 142.529 11.6014C143.283 12.6807 143.129 14.2487 143.129 15.6234L143.125 23.7204C143.125 23.9771 142.921 24.1845 142.667 24.1845H140.29C140.052 24.1669 139.861 23.9666 139.861 23.7204V16.9207C139.861 16.3793 139.908 15.0291 139.794 14.5159C139.617 13.6545 139.085 13.4119 138.395 13.4119C137.819 13.4119 137.217 13.8162 136.972 14.4632C136.728 15.1101 136.751 16.1929 136.751 16.9207V23.7203C136.751 23.977 136.547 24.1844 136.293 24.1844H133.916C133.675 24.1669 133.487 23.9665 133.487 23.7203L133.484 16.9207C133.484 15.4897 133.708 13.3838 132.018 13.3838C130.307 13.3838 130.374 15.437 130.374 16.9207V23.7203C130.374 23.977 130.17 24.1844 129.915 24.1844ZM173.908 10.1985C177.44 10.1985 179.351 13.3838 179.351 17.434C179.351 21.3471 177.239 24.4517 173.908 24.4517C170.44 24.4517 168.552 21.2663 168.552 17.2969C168.552 13.3029 170.463 10.1985 173.908 10.1985ZM173.928 12.8177C172.174 12.8177 172.063 15.328 172.063 16.8925C172.063 18.4607 172.04 21.8077 173.908 21.8077C175.753 21.8077 175.84 19.1076 175.84 17.4621C175.84 16.3793 175.796 15.0854 175.485 14.0588C175.217 13.1658 174.685 12.8177 173.928 12.8177M183.931 24.1844H181.561C181.323 24.1669 181.132 23.9665 181.132 23.7203L181.129 10.8875C181.149 10.652 181.347 10.4691 181.588 10.4691H183.794C184.001 10.4796 184.172 10.6274 184.219 10.8277V12.7896H184.262C184.929 11.0352 185.863 10.1985 187.506 10.1985C188.574 10.1985 189.616 10.6027 190.285 11.7102C190.908 12.7368 190.908 14.4632 190.908 15.7043V23.7801C190.881 24.0051 190.683 24.1844 190.449 24.1844H188.062C187.845 24.1669 187.664 23.9981 187.64 23.7801V16.8117C187.64 15.4089 187.794 13.3556 186.151 13.3556C185.571 13.3556 185.039 13.7635 184.775 14.3822C184.44 15.1663 184.396 15.9468 184.396 16.8118V23.7203C184.393 23.977 184.185 24.1844 183.931 24.1844ZM152.218 18.0563C152.218 19.0302 152.241 19.8424 151.773 20.7072C151.394 21.4105 150.792 21.8428 150.125 21.8428C149.212 21.8428 148.676 21.1116 148.676 20.0322C148.676 17.9016 150.494 17.5149 152.218 17.5149V18.0563ZM154.618 24.1493C154.461 24.2969 154.233 24.3075 154.056 24.209C153.266 23.5199 153.122 23.2 152.69 22.5425C151.384 23.9418 150.457 24.3602 148.766 24.3602C146.761 24.3602 145.204 23.0628 145.204 20.4647C145.204 18.436 146.249 17.0543 147.742 16.3793C149.034 15.7816 150.839 15.6761 152.218 15.5108V15.1874C152.218 14.5932 152.261 13.89 151.927 13.3767C151.639 12.9162 151.083 12.7263 150.591 12.7263C149.684 12.7263 148.877 13.215 148.679 14.2276C148.639 14.4526 148.482 14.6741 148.264 14.6846L145.958 14.4245C145.763 14.3788 145.546 14.2135 145.603 13.9006C146.132 10.9614 148.663 10.0754 150.926 10.0754C152.084 10.0754 153.597 10.3989 154.511 11.32C155.669 12.4556 155.559 13.9709 155.559 15.6199V19.5154C155.559 20.6862 156.021 21.1994 156.456 21.8323C156.607 22.0573 156.64 22.3281 156.446 22.4968C155.961 22.9222 155.097 23.7133 154.622 24.1563L154.618 24.1493M121.014 18.0563C121.014 19.0302 121.037 19.8424 120.568 20.7072C120.19 21.4105 119.591 21.8428 118.921 21.8428C118.007 21.8428 117.475 21.1116 117.475 20.0322C117.475 17.9016 119.293 17.5149 121.014 17.5149V18.0563ZM123.414 24.1493C123.257 24.2969 123.029 24.3075 122.851 24.209C122.061 23.5199 121.921 23.2 121.486 22.5425C120.18 23.9418 119.256 24.3602 117.562 24.3602C115.56 24.3602 114 23.0628 114 20.4647C114 18.436 115.048 17.0543 116.538 16.3793C117.83 15.7816 119.634 15.6761 121.014 15.5108V15.1874C121.014 14.5932 121.057 13.89 120.726 13.3767C120.434 12.9162 119.879 12.7263 119.39 12.7263C118.483 12.7263 117.672 13.215 117.475 14.2276C117.435 14.4526 117.277 14.6741 117.063 14.6846L114.753 14.4245C114.559 14.3788 114.345 14.2135 114.398 13.9006C114.931 10.9614 117.458 10.0754 119.721 10.0754C120.88 10.0754 122.393 10.3989 123.307 11.32C124.465 12.4556 124.355 13.9709 124.355 15.6199V19.5154C124.355 20.6862 124.817 21.1994 125.252 21.8323C125.406 22.0573 125.439 22.3281 125.245 22.4968C124.76 22.9222 123.896 23.7133 123.421 24.1563L123.414 24.1493" fill="white"/>
<path fill-rule="evenodd" clip-rule="evenodd" d="M94.9689 26.5571H97.9256L103.041 13.0082H100.115L98.0002 19.756L95.7725 13.008H92.5059L96.3955 22.7949L94.9689 26.5571ZM80.2941 16.2245V23.1697H77.3112V13.0082H79.407L80.0301 13.8959C80.8416 13.186 81.7101 12.7711 82.7107 12.7711C84.0512 12.7711 85.0706 13.1858 85.6936 14.2122C86.5997 13.3435 87.5628 12.7711 88.7901 12.7711C91.0933 12.7711 92.4338 14.0146 92.4338 17.3886V23.1697H89.4509V17.7439C89.4509 16.1851 88.8466 15.7311 87.8837 15.7311C87.3173 15.7311 86.8456 15.8886 86.3167 16.244C86.3549 16.5993 86.3736 16.9739 86.3736 17.3886V23.1697H83.3906V17.7439C83.3906 16.1851 82.7861 15.7311 81.8046 15.7311C81.257 15.7311 80.804 15.8693 80.2941 16.2245ZM69.8904 17.0926H73.7234C73.5155 15.771 72.8357 15.1392 71.8165 15.1392C70.9477 15.1392 70.1175 15.6721 69.8906 17.0928L69.8904 17.0926ZM72.0242 23.3673C69.1544 23.3673 66.8509 21.8874 66.8509 17.9803C66.8509 14.3299 69.0789 12.7518 71.6466 12.7518C74.7426 12.7518 76.121 15.0205 76.121 18.592H69.8716C70.0795 20.3481 71.1181 20.8615 72.4963 20.8615C73.8293 20.8615 74.872 20.5176 75.6789 19.9502L75.2738 22.4232C74.5039 23.0449 73.5797 23.3673 72.0242 23.3673ZM60.917 20.7431C61.5964 20.7431 62.1063 20.6243 62.6348 20.2102V15.7907C62.1631 15.4942 61.6914 15.3565 61.0116 15.3565C59.5578 15.3565 58.7271 16.3824 58.7271 18.0987C58.7271 19.7764 59.5769 20.7435 60.9171 20.7435L60.917 20.7431ZM63.2201 22.4202C62.4462 23.032 61.5591 23.4066 60.294 23.4066C57.6319 23.4066 55.7065 21.6901 55.7065 18.1581C55.7065 14.6458 57.9154 12.7518 60.7471 12.7518C61.4078 12.7518 62.05 12.8505 62.6348 13.0871V8.77393H65.6182V23.1697H63.73L63.2201 22.4202ZM43.0673 17.1516V9.62074H46.1633V17.0925C46.1633 19.776 47.3148 20.3284 48.9009 20.3284C50.6191 20.3284 51.5062 19.5389 51.5062 17.0925V9.62074H54.6214V17.1516C54.6214 21.5914 52.7713 23.4461 48.7502 23.4461C45.0117 23.4461 43.0671 21.8478 43.0671 17.1516H43.0673Z" fill="white"/>
<path fill-rule="evenodd" clip-rule="evenodd" d="M35.1767 17.7162C35.055 17.6121 34.9104 17.5412 34.7561 17.5098C33.848 18.4557 32.7399 19.4521 31.7559 20.1218C31.3018 20.4372 30.7308 20.5947 30.3527 20.5947C29.4824 20.5947 29.1042 19.7275 28.9906 18.3489C28.8393 16.4974 28.7372 14.2794 28.7372 10.8515C28.7372 7.33575 27.9737 4.9457 25.9399 4.75802C25.8524 4.74948 25.7645 4.74498 25.6765 4.74453C24.428 4.74453 23.8226 5.41416 23.0282 7.10873C22.3473 8.56618 21.288 10.6938 19.321 14.7125C17.6185 18.1798 15.727 21.2529 14.1 23.3805C13.647 23.9704 13.2889 24.3755 12.9523 24.6059C12.7274 24.7606 12.5114 24.8382 12.2844 24.8382C11.6422 24.8382 11.1734 24.2718 11.0168 22.9529C10.9797 22.6396 10.9599 22.2839 10.9599 21.8832C10.9599 19.1648 11.9438 14.7518 13.6459 8.25094C14.8943 3.52291 14.3649 0.292786 11.6408 0.292786H11.6103L11.6084 0.293348C10.9915 0.30084 10.4802 0.534226 9.9875 0.93956C9.50235 1.33853 9.01685 2.20089 8.56378 3.35995C8.05301 4.66568 4.94697 11.1772 0.0033989 14.5317C-0.0548472 15.8073 0.636041 17.0821 2.03574 17.2204C3.30998 17.3464 4.21468 16.7852 5.3796 15.9673C5.2234 16.6952 5.06951 17.4237 4.91794 18.1528C4.82922 18.5785 4.77277 18.8524 4.7561 18.9282C4.60234 19.6589 4.48473 20.3974 4.40376 21.1407C3.7066 27.6527 6.59471 30.8661 9.97674 30.8661C10.542 30.8661 11.1019 30.7957 11.6582 30.6481C15.3845 29.6606 18.9717 25.1933 23.2178 14.9095C23.1534 16.0282 23.1468 17.073 23.1931 18.0426C23.4728 23.9365 25.7034 25.7047 28.8547 25.7047C31.238 25.7047 33.47 24.4047 34.6048 22.7892C35.4375 21.6466 35.7778 20.3857 35.7778 19.4008C35.7778 18.6364 35.5459 18.026 35.1769 17.7162" fill="#EA5252"/>
</svg>
